<svg width="128" height="43" viewBox="0 0 128 43" fill="none" xmlns="http://www.w3.org/2000/svg">
<g clip-path="url(#clip0_243_592)">
<path d="M128 24.5603L121.49 24.5542C120.577 24.5542 119.665 24.5506 118.752 24.5572C118.589 24.5572 118.515 24.5364 118.517 24.3447C118.524 23.8257 118.515 23.8313 119.044 23.8004C119.543 23.771 120.034 23.6928 120.488 23.4671C121.001 23.2135 121.166 22.8797 121.086 22.3151C121.003 21.7272 120.81 21.1722 120.602 20.6198C120.112 19.3212 119.627 18.0208 119.146 16.7184C119.09 16.5662 119.02 16.5181 118.86 16.5181C115.963 16.5231 113.066 16.524 110.169 16.5206C110.038 16.5206 109.939 16.5206 109.881 16.6844C109.299 18.3523 108.655 19.9984 108.107 21.679C108.036 21.8953 107.986 22.1178 107.958 22.3435C107.885 22.9243 108.103 23.32 108.645 23.5539C109.111 23.7568 109.608 23.7978 110.106 23.8075C110.52 23.8171 110.505 23.8176 110.525 24.224C110.537 24.4776 110.482 24.5608 110.204 24.5593C107.67 24.5471 105.135 24.5471 102.601 24.5593C102.364 24.5593 102.279 24.5161 102.294 24.262C102.317 23.8247 102.3 23.8161 102.75 23.8055C104.188 23.7781 105.231 23.146 105.828 21.82C105.936 21.5821 106.055 21.3488 106.148 21.1058C107.28 18.1518 108.409 15.1971 109.536 12.2418C111.06 8.2398 112.581 4.23679 114.098 0.232762C114.166 0.0516678 114.25 -0.00717515 114.44 -0.00159521C114.955 0.0126083 115.471 0.0146373 115.985 -0.00159521C116.182 -0.00768242 116.26 0.0643495 116.325 0.237835C118.488 5.99464 120.655 11.7503 122.826 17.5047C123.286 18.7221 123.703 19.9609 124.245 21.1494C124.512 21.7343 124.833 22.2877 125.281 22.7569C126.02 23.532 126.938 23.8481 127.995 23.7994L128 24.5603ZM114.526 4.03016C113.157 7.74995 111.811 11.415 110.455 15.1043H118.261C118.56 15.1043 118.561 15.1043 118.459 14.8253C117.692 12.7235 116.925 10.6218 116.159 8.51998C115.622 7.04434 115.085 5.5682 114.526 4.03016Z" fill="white"/>
<path d="M49.7895 24.9144C49.5604 24.8159 49.3125 24.8509 49.0753 24.8312C47.6524 24.7109 46.2452 24.4827 44.837 24.2579C44.6733 24.2316 44.6616 24.1479 44.6555 24.019C44.5954 22.7806 44.5329 21.5425 44.468 20.3048C44.4502 19.9594 44.4381 19.6139 44.4143 19.269C44.4051 19.1351 44.4482 19.0914 44.5825 19.0975C44.8101 19.1082 45.0727 19.0331 45.2567 19.1239C45.4407 19.2147 45.3895 19.5114 45.4544 19.7139C45.8448 20.9384 46.6006 21.8819 47.7355 22.4663C49.6212 23.4397 51.5966 23.5823 53.5873 22.8285C55.4203 22.135 56.5111 20.495 56.4807 18.605C56.465 17.6483 56.0681 16.8463 55.4339 16.1508C54.6959 15.3422 53.7916 14.7518 52.8376 14.2389C51.5318 13.5369 50.2072 12.8693 48.9004 12.1688C47.9839 11.6777 47.1146 11.1152 46.3557 10.3933C45.4321 9.51474 44.9024 8.44745 44.765 7.18131C44.6327 5.95728 44.687 4.75506 45.204 3.61371C45.8544 2.17611 47.0101 1.29448 48.4416 0.730402C49.6075 0.270819 50.8307 0.0709554 52.0757 0.0202288C54.1869 -0.0695575 56.2734 0.14806 58.3406 0.575179C58.486 0.605615 58.5246 0.671559 58.5317 0.811058C58.5874 1.99045 58.6513 3.16934 58.7126 4.34823C58.7309 4.70332 58.7415 5.0584 58.7679 5.40892C58.779 5.55705 58.7304 5.59966 58.5874 5.59154C58.3598 5.57937 58.0932 5.65647 57.9148 5.56161C57.7363 5.46675 57.7824 5.17102 57.7186 4.96608C57.127 3.06332 55.7959 1.9869 53.8889 1.58819C52.6135 1.32188 51.3376 1.30615 50.1089 1.83219C48.9212 2.33945 48.0564 3.16528 47.7299 4.4436C47.3558 5.90807 47.8394 7.10979 48.9582 8.08577C49.8645 8.87609 50.9265 9.41278 51.9966 9.93121C53.529 10.6738 55.0634 11.4109 56.4827 12.361C56.9685 12.682 57.4327 13.0346 57.8722 13.4166C59.2951 14.6696 59.9175 16.2624 59.9028 18.1342C59.8881 19.9513 59.2946 21.5177 57.9158 22.7463C57.0033 23.5579 55.9287 24.0677 54.7663 24.4066C53.8904 24.6588 52.9895 24.8143 52.0797 24.8702C52.0255 24.8738 51.9586 24.8479 51.9211 24.9154L49.7895 24.9144Z" fill="white"/>
<path d="M32.8604 24.9145C32.5765 24.8014 32.2703 24.8196 31.9758 24.774C28.7556 24.2758 26.3826 22.5904 24.8568 19.7175C24.0234 18.1516 23.5723 16.4649 23.3335 14.7169C23.093 12.9095 23.061 11.0805 23.2382 9.26581C23.3903 7.62074 23.7218 6.01676 24.4634 4.52185C25.5705 2.28987 27.3837 0.957789 29.7794 0.365808C31.2793 -0.00449672 32.8036 -0.0445706 34.3345 0.0340557C36.1781 0.129422 37.9842 0.466754 39.769 0.924309C40.0118 0.986703 40.0985 1.0841 40.1112 1.34483C40.1938 3.04621 40.2947 4.74656 40.4032 6.44591C40.4179 6.67722 40.357 6.72998 40.135 6.72541C39.5201 6.71324 39.5216 6.72541 39.3422 6.13698C39.0152 5.0702 38.5276 4.0856 37.7535 3.26433C36.6282 2.06921 35.2058 1.53354 33.5969 1.43513C32.541 1.3707 31.5044 1.47165 30.525 1.91044C29.1168 2.54198 28.2495 3.66609 27.6767 5.05549C27.1698 6.28358 26.9432 7.57508 26.8302 8.88941C26.7099 10.268 26.6929 11.6537 26.7795 13.0348C26.9098 15.0918 27.2433 17.1031 28.1831 18.9698C29.3911 21.3682 31.3361 22.7611 33.9903 23.1502C36.1015 23.4601 38.1636 23.2603 40.1573 22.4705C40.2333 22.4405 40.3058 22.3903 40.4108 22.4086C40.4108 22.8717 40.4047 23.3354 40.4143 23.7985C40.4174 23.938 40.3347 23.9664 40.2379 24.0014C39.12 24.3847 37.9625 24.6409 36.7874 24.7653C36.3601 24.812 35.9297 24.8369 35.5008 24.8714C35.4598 24.8749 35.4152 24.8714 35.3949 24.919L32.8604 24.9145Z" fill="white"/>
<path d="M93.5327 24.9145C93.2671 24.8014 92.9787 24.8196 92.7014 24.777C89.1987 24.2393 86.7508 22.3178 85.2691 19.1322C84.5088 17.5028 84.1245 15.7751 83.9512 13.9951C83.7713 12.2144 83.7909 10.4192 84.0095 8.64289C84.2386 6.80354 84.709 5.04129 85.776 3.48398C86.877 1.87899 88.4191 0.91772 90.2748 0.419077C91.8676 -0.0085491 93.4917 -0.0476087 95.126 0.0426848C96.9361 0.144138 98.7068 0.47792 100.461 0.922286C100.702 0.983158 100.79 1.07447 100.803 1.33368C100.885 3.04368 100.988 4.75266 101.095 6.46113C101.109 6.67824 101.045 6.74469 100.837 6.71984C100.629 6.69498 100.366 6.80151 100.222 6.67723C100.094 6.56563 100.091 6.30946 100.032 6.11923C99.5756 4.61823 98.8041 3.33332 97.473 2.43851C96.5382 1.81 95.4904 1.51832 94.3808 1.44223C93.4045 1.37578 92.4404 1.44579 91.5132 1.79732C90.0853 2.33502 89.1495 3.37594 88.5225 4.72577C87.9446 5.97213 87.6825 7.29964 87.5553 8.65608C87.3849 10.4288 87.3861 12.2139 87.5588 13.9864C87.7454 15.8689 88.1524 17.6946 89.0938 19.3635C90.3164 21.53 92.1859 22.7723 94.6292 23.1431C96.7729 23.4688 98.8695 23.2714 100.893 22.4558C100.94 22.4365 100.987 22.4192 101.035 22.405C101.059 22.4046 101.082 22.4073 101.105 22.4132C101.105 22.8819 101.101 23.3526 101.107 23.8239C101.107 23.9542 101.02 23.971 100.934 24.0009C99.8179 24.3863 98.6615 24.6429 97.4871 24.7659C97.0674 24.8115 96.6457 24.8374 96.2254 24.8719C96.1849 24.8754 96.1393 24.8678 96.1241 24.9226L93.5327 24.9145Z" fill="white"/>
<path d="M13.4494 11.6901C14.1083 11.8245 14.7622 11.9878 15.3837 12.2572C17.4458 13.151 18.596 14.722 18.8773 16.9398C19.0101 17.9873 18.9787 19.0277 18.6933 20.0483C18.1803 21.8745 16.944 23.0178 15.2261 23.7047C14.1109 24.1506 12.945 24.3591 11.7527 24.458C9.94003 24.6102 8.12276 24.5417 6.30701 24.5493C4.30523 24.5579 2.30243 24.5493 0.301159 24.5554C0.0852158 24.5554 -0.0105902 24.5214 0.00106872 24.2743C0.021852 23.834 0.00563129 23.8325 0.457287 23.8153C0.785972 23.8051 1.11355 23.7721 1.43765 23.7163C2.36073 23.552 2.86257 22.9778 3.05215 22.0931C3.13101 21.7045 3.16806 21.3086 3.16266 20.9122C3.15995 15.1845 3.15793 9.45691 3.15657 3.72952C3.15185 3.37542 3.10436 3.02319 3.01515 2.6805C2.79616 1.78821 2.21423 1.31088 1.32106 1.1729C0.953266 1.12072 0.582392 1.09326 0.210929 1.09072C0.0684879 1.09072 0.0041101 1.06384 0.00258938 0.897453C-0.00247971 0.36533 -0.0105899 0.36533 0.523692 0.36533C3.69136 0.36533 6.86005 0.356199 10.0267 0.37649C11.4486 0.385621 12.8593 0.52867 14.2092 1.02579C16.1025 1.72176 17.3247 3.00413 17.6237 5.04182C17.8584 6.64124 17.6932 8.17572 16.6895 9.52099C15.9509 10.5117 14.9189 11.0859 13.7829 11.4993C13.6683 11.5414 13.5533 11.5815 13.4382 11.6226L13.4494 11.6901ZM6.40332 16.9428C6.40332 17.9719 6.40332 19.001 6.40332 20.03C6.40332 20.5617 6.40332 21.0923 6.44793 21.6229C6.52295 22.5324 6.90415 22.9418 7.81354 23.0432C8.12377 23.0787 8.43552 23.1061 8.74676 23.1193C9.91721 23.17 11.0785 23.1046 12.2003 22.7363C13.7297 22.2346 14.8393 21.2926 15.3077 19.7094C15.6002 18.7198 15.591 17.7088 15.4172 16.7019C15.1313 15.0441 14.2391 13.8439 12.6728 13.1748C11.811 12.8066 10.8986 12.6442 9.97044 12.5626C8.8745 12.4662 7.77603 12.5118 6.67858 12.4926C6.46263 12.4885 6.39471 12.5347 6.39673 12.7655C6.40941 14.1594 6.40332 15.5514 6.40332 16.9428ZM6.40332 7.38641C6.40332 8.53284 6.4089 9.67977 6.39825 10.8267C6.39825 11.0418 6.46162 11.093 6.66742 11.0864C7.16521 11.0717 7.664 11.0864 8.1623 11.0803C9.20044 11.0636 10.2376 11.0387 11.2468 10.7465C12.8375 10.2859 13.8605 9.29171 14.1808 7.64106C14.3463 6.78585 14.3384 5.90608 14.1575 5.054C13.867 3.65597 13.0656 2.67745 11.7137 2.19809C10.3618 1.71872 8.97081 1.67966 7.56668 1.88307C7.01567 1.96271 6.68162 2.3041 6.55286 2.84384C6.4307 3.35567 6.4089 3.87815 6.40637 4.40064C6.4018 5.3964 6.40485 6.38912 6.40485 7.38641H6.40332Z" fill="white"/>
<path d="M66.7963 24.5542C65.2928 24.5542 63.7894 24.5507 62.2849 24.5583C62.0785 24.5583 61.9873 24.5339 61.9995 24.2915C62.0223 23.8263 62.005 23.8212 62.48 23.8116C62.784 23.8115 63.0875 23.7849 63.3869 23.732C64.4286 23.529 64.9411 22.9655 65.0982 21.885C65.1504 21.4836 65.1736 21.0789 65.1676 20.6742C65.1697 15.2004 65.1697 9.72648 65.1676 4.2524C65.1748 3.86456 65.1543 3.4767 65.1063 3.09177C64.9238 1.81194 64.2709 1.20372 62.9773 1.12611C62.7076 1.10988 62.4379 1.09466 62.1662 1.08908C62.0527 1.08908 62.0091 1.05966 62.003 0.933351C61.9767 0.364197 61.9716 0.364705 62.5327 0.364705C65.7425 0.364705 68.9522 0.356081 72.164 0.373328C73.6523 0.380937 75.1335 0.49558 76.5579 0.982049C78.6783 1.70592 79.7859 3.23127 80.0469 5.41302C80.1686 6.43212 80.1635 7.45072 79.9303 8.45663C79.5162 10.2473 78.4157 11.4429 76.7216 12.1166C75.6196 12.5538 74.4623 12.7298 73.2878 12.8161C71.7529 12.9256 70.2149 12.8896 68.678 12.8866C68.4494 12.8866 68.4002 12.9515 68.4012 13.1696C68.4088 15.6832 68.4037 18.1967 68.4083 20.7102C68.4083 21.19 68.4261 21.6704 68.5376 22.1427C68.7652 23.1065 69.3294 23.6178 70.3118 23.7507C70.6633 23.7988 71.018 23.8197 71.3727 23.8131C71.544 23.8101 71.5821 23.8689 71.5816 24.0307C71.5816 24.5542 71.5861 24.5542 71.0518 24.5542H66.7963ZM68.4068 7.10933C68.4068 8.62352 68.4108 9.92161 68.4027 11.2182C68.4027 11.411 68.4443 11.481 68.6521 11.4759C69.2427 11.4612 69.8337 11.4759 70.4263 11.4698C71.5243 11.4617 72.6197 11.4262 73.6903 11.1426C75.2617 10.7261 76.2517 9.75523 76.5645 8.13401C76.7463 7.19673 76.7563 6.23416 76.5939 5.29331C76.2953 3.5478 75.3002 2.4237 73.5626 2.00115C72.308 1.69679 71.0311 1.71759 69.7607 1.85556C68.939 1.94535 68.6455 2.25123 68.5082 2.97865C68.4739 3.16927 68.4522 3.36194 68.4433 3.55541C68.3743 4.81293 68.4215 6.06943 68.4068 7.10933Z" fill="white"/>
<path d="M1.88925 41.5633C2.45958 41.9114 3.11402 42.0972 3.78205 42.1005C4.86531 42.1005 5.5025 41.5304 5.5025 40.6929C5.5025 39.9264 5.05794 39.4754 3.95136 39.0569C2.61261 38.5781 1.78179 37.8684 1.78179 36.7118C1.78179 35.4249 2.84326 34.4697 4.44103 34.4697C5.27388 34.4697 5.89282 34.6645 6.2507 34.8689L5.95466 35.7445C5.6936 35.5883 5.14361 35.3519 4.40606 35.3519C3.2792 35.3519 2.8539 36.025 2.8539 36.5886C2.8539 37.3561 3.3527 37.7345 4.48463 38.1758C5.87609 38.7257 6.57715 39.3988 6.57715 40.6107C6.57715 41.8789 5.65001 42.9949 3.70652 42.9949C2.91321 42.9949 2.04842 42.7534 1.61096 42.4556L1.88925 41.5633Z" fill="white"/>
<path d="M8.02588 34.6975C8.69925 34.5821 9.38153 34.527 10.0647 34.5326C11.1048 34.5326 11.8738 34.7751 12.364 35.2195C12.8091 35.6151 13.0853 36.2142 13.0853 36.9503C13.0853 37.7 12.8638 38.291 12.4476 38.7196C11.8824 39.3243 10.9776 39.6251 9.94098 39.6251C9.6196 39.6251 9.32863 39.6134 9.0843 39.5485V42.8645H8.02588V34.6975ZM9.0843 38.679C9.32002 38.748 9.61504 38.7718 9.96278 38.7718C11.2473 38.7718 12.0234 38.1362 12.0234 37.0071C12.0234 35.9124 11.2488 35.3772 10.0865 35.3772C9.75046 35.3722 9.41478 35.4004 9.0843 35.4614V38.679Z" fill="white"/>
<path d="M18.7445 38.9886H15.5651V41.9754H19.1216V42.8646H14.5001V34.5962H18.9341V35.4854H15.5651V38.1039H18.7445V38.9886Z" fill="white"/>
<path d="M21.8183 40.2664L20.9708 42.8646H19.8723L22.6603 34.5962H23.9342L26.7354 42.8646H25.6044L24.726 40.2664H21.8183ZM24.5121 39.4315L23.701 37.0524C23.5231 36.5111 23.3999 36.0186 23.2782 35.5438H23.2498C23.1322 36.0272 23.0045 36.5319 22.8443 37.0377L22.0363 39.4315H24.5121Z" fill="white"/>
<path d="M27.9352 34.5972H28.9936V38.5823H29.0316C29.2471 38.2617 29.4742 37.9735 29.6789 37.7037L32.1846 34.5972H33.4955L30.5295 38.111L33.7307 42.8646H32.4756L29.7803 38.8095L28.9936 39.7165V42.8651H27.9352V34.5972Z" fill="white"/>
<path d="M35.5956 34.5972V42.8656H34.5311V34.5972H35.5956Z" fill="white"/>
<path d="M37.4392 42.8646V34.5962H38.6051L41.2324 38.7745C41.8321 39.7444 42.3086 40.6134 42.6964 41.4666L42.7232 41.4539C42.6269 40.3501 42.6076 39.3422 42.6076 38.0613V34.5972H43.6052V42.8657H42.5286L39.921 38.6751C39.3563 37.7489 38.8058 36.8058 38.3952 35.907L38.3592 35.9197C38.4221 36.9672 38.4368 37.9634 38.4368 39.3305V42.8657L37.4392 42.8646Z" fill="white"/>
<path d="M51.6991 42.4931C50.8912 42.7909 50.0376 42.9454 49.1767 42.9497C47.9333 42.9497 46.9078 42.6326 46.1094 41.8565C45.4028 41.1712 44.9674 40.074 44.9689 38.7871C44.9724 36.3212 46.6548 34.5159 49.4033 34.5159C50.3512 34.5159 51.103 34.7259 51.4553 34.8953L51.1907 35.7663C50.7537 35.5634 50.2063 35.4112 49.3785 35.4112C47.3889 35.4112 46.0836 36.6596 46.0836 38.7308C46.0836 40.8253 47.3306 42.066 49.2497 42.066C49.9422 42.066 50.4126 41.9676 50.6574 41.8433V39.3795H48.9973V38.5253H51.6986L51.6991 42.4931Z" fill="white"/>
<path d="M55.8882 34.5972H60.3059V35.4864H56.9532V38.2393H60.0509V39.123H56.9532V42.8646H55.8887L55.8882 34.5972Z" fill="white"/>
<path d="M68.8295 38.6481C68.8295 41.4848 67.1147 42.9995 65.0237 42.9995C62.848 42.9995 61.3369 41.3021 61.3369 38.8033C61.3369 36.1838 62.9453 34.4622 65.1352 34.4622C67.3752 34.4622 68.8295 36.1914 68.8295 38.6481ZM62.4572 38.7785C62.4572 40.5478 63.4102 42.131 65.0814 42.131C66.7639 42.131 67.7093 40.5732 67.7093 38.6948C67.7093 37.0492 66.8571 35.3306 65.0946 35.3306C63.3321 35.3306 62.4572 36.9701 62.4572 38.7785Z" fill="white"/>
<path d="M70.1992 34.7103C70.737 34.6017 71.5086 34.5327 72.237 34.5327C73.3613 34.5327 74.1024 34.7483 74.6139 35.213C75.0194 35.5751 75.2572 36.1382 75.2572 36.7855C75.2572 37.8721 74.5693 38.5939 73.7111 38.8922V38.9226C74.3366 39.1438 74.7148 39.7398 74.914 40.5966C75.1837 41.7521 75.3778 42.5425 75.5446 42.8656H74.4461C74.3168 42.6267 74.1318 41.9216 73.9073 40.8872C73.6634 39.755 73.2199 39.3147 72.2608 39.2838H71.2602V42.8666H70.2012L70.1992 34.7103ZM71.2602 38.4737H72.3424C73.4764 38.4737 74.1947 37.8518 74.1947 36.9042C74.1947 35.8298 73.4262 35.3636 72.3085 35.3616C71.795 35.3616 71.4396 35.4088 71.2602 35.4559V38.4737Z" fill="white"/>
<path d="M80.6578 40.2664L79.8103 42.8646H78.7118L81.4998 34.5962H82.7737L85.5753 42.8646H84.4424L83.5639 40.2664H80.6578ZM83.3515 39.4315L82.5405 37.0524C82.3625 36.5111 82.2394 36.0186 82.1182 35.5438H82.0893C81.9722 36.0272 81.844 36.5319 81.6838 37.0377L80.8758 39.4315H83.3515Z" fill="white"/>
<path d="M86.7742 42.8646V34.5962H87.9401L90.5674 38.7745C91.167 39.7444 91.6435 40.6134 92.0313 41.4666L92.0582 41.4539C91.9619 40.3501 91.9426 39.3422 91.9426 38.0613V34.5972H92.9402V42.8657H91.8645L89.2555 38.6741C88.6908 37.7478 88.1403 36.8048 87.7297 35.906L87.6932 35.9186C87.7566 36.9661 87.7713 37.9624 87.7713 39.3295V42.8646H86.7742Z" fill="white"/>
<path d="M95.8453 34.5972V42.8656H94.7808V34.5972H95.8453Z" fill="white"/>
<path d="M104.615 39.2341C104.551 38.0856 104.477 36.6901 104.484 35.6685H104.451C104.168 36.6277 103.828 37.6696 103.419 38.8024L101.97 42.8133H101.168L99.8316 38.8759C99.4408 37.7092 99.122 36.6475 98.8923 35.6685H98.8639C98.835 36.6987 98.7818 38.075 98.7027 39.3157L98.4848 42.8666H97.4775L98.0488 34.5981H99.4018L100.799 38.6005C101.136 39.6125 101.412 40.523 101.625 41.3859H101.656C101.872 40.5484 102.159 39.6373 102.525 38.601L103.988 34.5987H105.342L105.849 42.8671H104.807L104.615 39.2341Z" fill="white"/>
<path d="M108.684 40.2664L107.836 42.8646H106.738L109.526 34.5962H110.8L113.601 42.8646H112.472L111.593 40.2664H108.684ZM111.377 39.4315L110.566 37.0524C110.388 36.5111 110.265 36.0186 110.144 35.5438H110.115C109.998 36.0272 109.87 36.5319 109.71 37.0377L108.901 39.4315H111.377Z" fill="white"/>
<path d="M114.801 34.5972H115.865V41.9637H119.372V42.8646H114.8L114.801 34.5972Z" fill="white"/>
<path d="M120.407 41.5633C120.978 41.9114 121.632 42.0972 122.3 42.1005C123.384 42.1005 124.021 41.5304 124.021 40.6929C124.021 39.9264 123.576 39.4754 122.469 39.0569C121.13 38.5781 120.3 37.8684 120.3 36.7118C120.3 35.4249 121.361 34.4697 122.959 34.4697C123.792 34.4697 124.411 34.6645 124.768 34.8689L124.473 35.7445C124.211 35.5883 123.662 35.3519 122.924 35.3519C121.797 35.3519 121.372 36.025 121.372 36.5886C121.372 37.3561 121.87 37.7345 123.003 38.1758C124.394 38.7257 125.095 39.3988 125.095 40.6107C125.095 41.8789 124.168 42.9949 122.225 42.9949C121.431 42.9949 120.567 42.7534 120.129 42.4556L120.407 41.5633Z" fill="white"/>
</g>
<defs>
<clipPath id="clip0_243_592">
<rect width="128" height="43" fill="white"/>
</clipPath>
</defs>
</svg>
